<?xml version="1.0" standalone="no"?><!DOCTYPE svg PUBLIC "-//W3C//DTD SVG 1.1//EN" "http://www.w3.org/Graphics/SVG/1.1/DTD/svg11.dtd"><svg t="1775628862817" class="icon" viewBox="0 0 1024 1024" version="1.1" xmlns="http://www.w3.org/2000/svg" p-id="8392" xmlns:xlink="http://www.w3.org/1999/xlink" width="256" height="256"><path d="M512 1021.952C231.424 1021.952 2.048 792.576 2.048 512S231.424 2.048 512 2.048 1021.952 231.424 1021.952 512 792.576 1021.952 512 1021.952z m0-978.944C253.952 43.008 43.008 253.952 43.008 512S253.952 980.992 512 980.992 980.992 770.048 980.992 512 770.048 43.008 512 43.008z" fill="#ec7c89" p-id="8393"></path><path d="M227.328 317.44h98.304v96.256h-98.304z m161.792 0h98.304v96.256H389.12z m149.504 0h98.304v96.256h-98.304z m159.744 0h98.304v96.256h-98.304z m-471.04 159.744h98.304v96.256h-98.304z m161.792 0h98.304v96.256H389.12z m149.504 0h98.304v96.256h-98.304z m159.744 0h98.304v96.256h-98.304z m38.912 247.808H290.816c-2.048 0-6.144-2.048-6.144-6.144v-38.912c0-2.048 2.048-6.144 6.144-6.144H737.28c2.048 0 6.144 2.048 6.144 6.144v38.912c0 4.096-2.048 6.144-6.144 6.144z" fill="#ec7c89" p-id="8394"></path></svg>